<?xml version="1.0" encoding="utf-8"?>
<!-- Generator: Adobe Illustrator 24.0.3, SVG Export Plug-In . SVG Version: 6.00 Build 0)  -->
<svg version="1.1" id="Layer_1" xmlns="http://www.w3.org/2000/svg" xmlns:xlink="http://www.w3.org/1999/xlink" x="0px" y="0px"
	 viewBox="0 0 566.9 161.6" style="enable-background:new 0 0 566.9 161.6;" xml:space="preserve">
<style type="text/css">
	.st0{fill:#FFFFFF;}
</style>
<g>
	<g>
		<path class="st0" d="M59.9,61l8.9,10l-3.7,3l-8.8-10c-5.9,4.3-13.1,6.9-21,6.9C15.8,71,0,55.1,0,35.5C0,15.8,15.8,0,35.3,0
			c19.6,0,35.3,15.8,35.3,35.5C70.7,45.5,66.6,54.5,59.9,61z M53,60.2l-9.7-10.9l3.7-3l9.6,10.9c5.5-5.6,8.9-13.3,8.9-21.7
			C65.5,18.6,52.1,5,35.3,5S5.2,18.6,5.2,35.5c0,16.9,13.4,30.5,30.2,30.5C41.9,65.9,48,63.9,53,60.2z"/>
		<path class="st0" d="M82.7,49.4V1.1h6.9v48.4c0,9.9,6.8,14.9,16.6,14.9s16.6-5,16.6-14.9V1.1h6.9v48.4c0,14.1-10.5,21.6-23.5,21.6
			S82.7,63.5,82.7,49.4z"/>
		<path class="st0" d="M183,54.4h-30.6L147,69.9h-9.7l25.3-68.8h10.3l25.4,68.8h-9.7L183,54.4z M179.9,45.9l-12.1-34.1l-12.2,34.1
			H179.9z"/>
		<path class="st0" d="M254.8,1.1v68.8H246l-28.9-46.7v46.7h-11.3V1.1h8.8l28.9,46.7V1.1H254.8z"/>
		<path class="st0" d="M309.5,14.1h-16.5v55.8h-13.5V14.1H263v-13h30h16.5V14.1z"/>
		<path class="st0" d="M333.4,1.1v68.8h-15.7V1.1H333.4z"/>
		<path class="st0" d="M362.1,18.1v12.2h23.1v17h-23.1v22.6h-17.5V1.1h17.5h23.6v17H362.1z"/>
		<path class="st0" d="M415.1,1.1v68.8h-19.6V1.1H415.1z"/>
		<path class="st0" d="M47.6,111.6c0,11.1-9,20.2-20.2,20.2H9.1V160H3.9V91.2h5.2h18.3C38.6,91.2,47.6,100.3,47.6,111.6z
			 M42.4,111.6c0-8.5-6.8-15.4-15-15.4H9.1v30.8h18.3C35.6,126.9,42.4,120,42.4,111.6z"/>
		<path class="st0" d="M105.8,91.2V160h-6.9v-32.1H66.6V160h-6.9V91.2h6.9v30.2h32.3V91.2H105.8z"/>
		<path class="st0" d="M117.3,125.6c0-19.9,15.6-35.7,35.4-35.7s35.5,15.8,35.5,35.7c0,19.8-15.7,35.7-35.5,35.7
			S117.3,145.4,117.3,125.6z M179.2,125.6c0-15.1-11.5-26.8-26.4-26.8c-15,0-26.4,11.7-26.4,26.8c0,15,11.5,26.7,26.4,26.7
			C167.8,152.3,179.2,140.6,179.2,125.6z"/>
		<path class="st0" d="M239.5,102h-17.3v58h-11.3v-58h-17.4V91.2h28.7h17.3V102z"/>
		<path class="st0" d="M244.2,125.6c0-20.1,15.8-35.8,35.5-35.8c19.8,0,35.6,15.6,35.6,35.8c0,20-15.9,35.8-35.6,35.8
			C259.9,161.4,244.2,145.7,244.2,125.6z M301.8,125.6c0-13.3-9.7-22.6-22.1-22.6c-12.4,0-22.1,9.3-22.1,22.6
			c0,13.2,9.7,22.5,22.1,22.5C292.1,148.1,301.8,138.8,301.8,125.6z"/>
		<path class="st0" d="M376.3,91.2V160h-11.7L340,121.7V160h-15.7V91.2h11.8l24.5,38.3V91.2H376.3z"/>
		<path class="st0" d="M405.1,91.2V160h-17.5V91.2H405.1z"/>
		<path class="st0" d="M412.9,125.6c0-20.3,15.1-36,35.8-36c17.4,0,32,12.2,34.2,29h-20.3c-1.5-5.8-7.1-9.7-13.9-9.7
			c-9.7,0-16.3,7.2-16.3,16.7s6.6,16.7,16.3,16.7c6.9,0,12.4-3.9,13.9-9.8H483c-2.3,16.9-16.7,29.1-34.3,29.1
			C428,161.6,412.9,145.9,412.9,125.6z"/>
		<path class="st0" d="M488.5,137.6h19.6c0,4.2,2.8,5.7,7.4,5.7c3.7,0,5.8-1.6,5.8-3.9c0-2.9-4.8-4.1-10.7-5.8
			c-9.3-2.8-21.4-8.5-21.4-22.3c0-14.2,10.8-21.6,24.7-21.6c13.8,0,25.3,6.9,25.3,23h-19.6c0-2.6-1.5-4.7-5.7-4.7
			c-3.3,0-5.1,1.4-5.1,3.4c0,3.5,5.6,4.6,12.1,6.6c9.1,2.8,20,8.6,20,22c0,14.3-11,21.6-25.6,21.6
			C500.3,161.6,488.5,154.7,488.5,137.6z"/>
	</g>
	<g>
		<path class="st0" d="M553.5,93.1H550v10h-2v-10h-3.5v-1.8h8.9V93.1z M566.9,103.1h-2v-8.7l-3,6.1h-1.9l-3-6.1v8.7h-2V91.2h2h0.5
			l3.5,7.2l3.6-7.2h2.4V103.1z"/>
	</g>
</g>
</svg>
